# Blender 4.1.1
# www.blender.org
mtllib Table.mtl
o Bein
v -0.766090 -0.125512 1.212976
v -0.766090 1.151305 1.212976
v -0.638409 -0.125512 1.212976
v -0.638409 1.151305 1.212976
v -0.638409 -0.125512 1.085295
v -0.638409 1.151305 1.085295
v -0.766090 -0.125512 1.085295
v -0.766090 1.151305 1.085295
v 0.638409 -0.125512 1.212976
v 0.638409 1.151305 1.212976
v 0.766090 -0.125512 1.212976
v 0.766090 1.151305 1.212976
v 0.766090 -0.125512 1.085295
v 0.766090 1.151305 1.085295
v 0.638409 -0.125512 1.085295
v 0.638409 1.151305 1.085295
v -0.766090 -0.125512 -1.085295
v -0.766090 1.151305 -1.085295
v -0.638409 -0.125512 -1.085295
v -0.638409 1.151305 -1.085295
v -0.638409 -0.125512 -1.212976
v -0.638409 1.151305 -1.212976
v -0.766090 -0.125512 -1.212976
v -0.766090 1.151305 -1.212976
v 0.638409 -0.125512 -1.085295
v 0.638409 1.151305 -1.085295
v 0.766090 -0.125512 -1.085295
v 0.766090 1.151305 -1.085295
v 0.766090 -0.125512 -1.212976
v 0.766090 1.151305 -1.212976
v 0.638409 -0.125512 -1.212976
v 0.638409 1.151305 -1.212976
v -0.893772 1.119609 1.404499
v -0.893772 1.183450 1.404499
v 0.893772 1.119609 1.404499
v 0.893772 1.183450 1.404499
v 0.893772 1.119609 -1.404499
v 0.893772 1.183450 -1.404499
v -0.893772 1.119609 -1.404499
v -0.893772 1.183450 -1.404499
v -0.638409 0.832101 -1.084131
v -0.638409 0.959783 -1.084131
v 0.638409 0.832101 -1.084131
v 0.638409 0.959783 -1.084131
v 0.638409 0.832101 -1.211812
v 0.638409 0.959783 -1.211812
v -0.638409 0.832101 -1.211812
v -0.638409 0.959783 -1.211812
v -0.638409 0.832101 1.205495
v -0.638409 0.959783 1.205495
v 0.638409 0.832101 1.205495
v 0.638409 0.959783 1.205495
v 0.638409 0.832101 1.077813
v 0.638409 0.959783 1.077813
v -0.638409 0.832101 1.077813
v -0.638409 0.959783 1.077813
v -0.063841 0.832101 1.149135
v -0.063841 0.959783 1.149135
v 0.063841 0.832101 1.149135
v 0.063841 0.959783 1.149135
v 0.063841 0.832101 -1.149135
v 0.063841 0.959783 -1.149135
v -0.063841 0.832101 -1.149135
v -0.063841 0.959783 -1.149135
vn -0.0000 -0.0000 1.0000
vn 1.0000 -0.0000 -0.0000
vn -0.0000 -0.0000 -1.0000
vn -1.0000 -0.0000 -0.0000
vn -0.0000 1.0000 -0.0000
vn -0.0000 -1.0000 -0.0000
vt 0.000000 0.000000
vt 0.727273 0.454545
vt 0.681818 0.000000
vt 0.727273 0.000000
vt 0.772727 0.454545
vt 0.818182 0.909091
vt 0.772727 0.909091
vt 0.863637 0.636364
vt 0.909091 0.681818
vt 0.863637 0.681818
vt 0.727273 0.909091
vt 0.681818 0.454545
vt 0.818182 -0.000000
vt 0.863637 0.454545
vt 0.818182 0.454545
vt 0.863637 0.681818
vt 0.909091 0.727273
vt 0.863637 0.727273
vt 0.727273 -0.000000
vt 0.772728 -0.000000
vt 0.818182 0.454545
vt 0.863637 0.909091
vt 0.818182 0.909091
vt 0.886364 0.000000
vt 0.863637 0.000000
vt 0.636364 1.000000
vt 0.000000 0.000000
vt 0.636364 0.000000
vt 0.636364 1.000000
vt 0.659091 0.000000
vt 0.659091 1.000000
vt 0.681818 -0.000000
vt 0.659091 1.000000
vt 0.659091 -0.000000
vt 0.772728 0.454545
vt 0.818182 0.000000
vt 0.772728 0.000000
vt 0.909091 0.727273
vt 0.863637 0.772727
vt 0.863637 0.727273
vt 0.681818 0.454545
vt 0.909091 0.636364
vt 0.681818 0.909091
vt 0.863637 -0.000000
vt 0.909091 0.681818
vt 0.727273 0.454545
vt 0.863637 0.454545
vt 0.886364 0.636364
vt -0.000000 1.000000
vt 0.636364 0.000000
vt 0.681818 1.000000
vt 0.772728 0.909091
vt 0.909091 0.772727
s 0
usemtl 
f 4/1/1 1/1/1 3/1/1
f 6/1/2 3/1/2 5/1/2
f 8/2/3 5/3/3 7/4/3
f 2/5/4 7/6/4 1/7/4
f 6/1/5 2/1/5 4/1/5
f 3/8/6 7/9/6 5/10/6
f 12/1/1 9/1/1 11/1/1
f 14/1/2 11/1/2 13/1/2
f 16/1/3 13/1/3 15/1/3
f 10/1/4 15/1/4 9/1/4
f 14/1/5 10/1/5 12/1/5
f 11/1/6 15/1/6 13/1/6
f 20/1/1 17/1/1 19/1/1
f 22/1/2 19/1/2 21/1/2
f 24/11/3 21/12/3 23/2/3
f 18/13/4 23/14/4 17/15/4
f 22/1/5 18/1/5 20/1/5
f 19/16/6 23/17/6 21/18/6
f 28/1/1 25/1/1 27/1/1
f 30/1/2 27/1/2 29/1/2
f 32/5/3 29/19/3 31/20/3
f 26/21/4 31/22/4 25/23/4
f 30/1/5 26/1/5 28/1/5
f 27/1/6 31/1/6 29/1/6
f 36/1/1 33/1/1 35/1/1
f 40/24/3 37/8/3 39/25/3
f 38/26/5 34/27/5 36/28/5
f 35/1/6 39/1/6 37/1/6
f 62/1/5 58/1/5 60/1/5
f 59/1/6 63/1/6 61/1/6
f 4/1/1 2/1/1 1/1/1
f 6/1/2 4/1/2 3/1/2
f 8/2/3 6/41/3 5/3/3
f 2/5/4 8/15/4 7/6/4
f 6/1/5 8/1/5 2/1/5
f 3/8/6 1/42/6 7/9/6
f 12/1/1 10/1/1 9/1/1
f 14/1/2 12/1/2 11/1/2
f 16/1/3 14/1/3 13/1/3
f 10/1/4 16/1/4 15/1/4
f 14/1/5 16/1/5 10/1/5
f 11/1/6 9/1/6 15/1/6
f 20/1/1 18/1/1 17/1/1
f 22/1/2 20/1/2 19/1/2
f 24/11/3 22/43/3 21/12/3
f 18/13/4 24/44/4 23/14/4
f 22/1/5 24/1/5 18/1/5
f 19/16/6 17/45/6 23/17/6
f 28/1/1 26/1/1 25/1/1
f 30/1/2 28/1/2 27/1/2
f 32/5/3 30/46/3 29/19/3
f 26/21/4 32/47/4 31/22/4
f 30/1/5 32/1/5 26/1/5
f 27/1/6 25/1/6 31/1/6
f 36/1/1 34/1/1 33/1/1
f 40/24/3 38/48/3 37/8/3
f 38/26/5 40/49/5 34/27/5
f 35/1/6 33/1/6 39/1/6
f 62/1/5 64/1/5 58/1/5
f 59/1/6 57/1/6 63/1/6
usemtl 
f 38/29/2 35/30/2 37/31/2
f 34/32/4 39/33/4 33/34/4
f 44/1/1 41/1/1 43/1/1
f 46/1/2 43/1/2 45/1/2
f 48/35/3 45/11/3 47/2/3
f 42/1/4 47/1/4 41/1/4
f 46/1/5 42/1/5 44/1/5
f 43/1/6 47/1/6 45/1/6
f 52/1/1 49/1/1 51/1/1
f 54/1/2 51/1/2 53/1/2
f 56/36/3 53/5/3 55/37/3
f 50/38/4 55/39/4 49/40/4
f 54/1/5 50/1/5 52/1/5
f 51/1/6 55/1/6 53/1/6
f 60/1/1 57/1/1 59/1/1
f 62/1/2 59/1/2 61/1/2
f 64/1/3 61/1/3 63/1/3
f 58/1/4 63/1/4 57/1/4
f 38/29/2 36/50/2 35/30/2
f 34/32/4 40/51/4 39/33/4
f 44/1/1 42/1/1 41/1/1
f 46/1/2 44/1/2 43/1/2
f 48/35/3 46/52/3 45/11/3
f 42/1/4 48/1/4 47/1/4
f 46/1/5 48/1/5 42/1/5
f 43/1/6 41/1/6 47/1/6
f 52/1/1 50/1/1 49/1/1
f 54/1/2 52/1/2 51/1/2
f 56/36/3 54/15/3 53/5/3
f 50/38/4 56/53/4 55/39/4
f 54/1/5 56/1/5 50/1/5
f 51/1/6 49/1/6 55/1/6
f 60/1/1 58/1/1 57/1/1
f 62/1/2 60/1/2 59/1/2
f 64/1/3 62/1/3 61/1/3
f 58/1/4 64/1/4 63/1/4
